<svg xmlns="http://www.w3.org/2000/svg" xmlns:xlink="http://www.w3.org/1999/xlink" fill="none" version="1.1" width="11.65920352935791" height="11.659213066101074" viewBox="0 0 11.65920352935791 11.659213066101074"><g><path d="M5.81581,0.000026666C2.59825,0.00768047,-0.00467937,2.62061,0.0000213943,5.83812C0.00472216,9.05562,2.61526,11.661,5.83276,11.6592C9.05027,11.6575,11.658,9.04934,11.6592,5.83182C11.6592,2.60647,9.04116,-0.0063975,5.81581,0.000026666ZM7.8876,7.83582C7.79827,7.95549,7.65758,8.02584,7.50825,8.02549C7.3933,8.02491,7.28222,7.98384,7.19455,7.90948L5.26861,6.25275C5.15182,6.15355,5.08502,6.00767,5.08623,5.85443L5.08623,3.43393C5.07084,3.15144,5.29575,2.91394,5.57866,2.91394C5.86157,2.91394,6.08648,3.15144,6.07108,3.43393L6.07108,5.60785L7.82194,7.11067C8.03436,7.29616,8.06328,7.61594,7.8876,7.83654L7.8876,7.83582Z" fill="#666666" fill-opacity="1"/></g></svg>