<svg xmlns="http://www.w3.org/2000/svg" xmlns:xlink="http://www.w3.org/1999/xlink" fill="none" version="1.1" width="16.7471923828125" height="8.37353515625" viewBox="0 0 16.7471923828125 8.37353515625"><g><path d="M2.09336,0C1.86213,0,1.67468,0.187449,1.67468,0.418679L1.67468,1.67472L0.418679,1.67472C0.187449,1.67472,0,1.86217,0,2.0934L0,6.28019C0,6.51142,0.187449,6.69887,0.418679,6.69887L1.67468,6.69887L1.67468,7.95491C1.67468,8.18614,1.86213,8.37358,2.09336,8.37358L16.3285,8.37358C16.3574,8.37358,16.3856,8.37065,16.4128,8.36508C16.4432,8.35887,16.4723,8.34938,16.4999,8.337C16.6457,8.27153,16.7472,8.12507,16.7472,7.95491L16.7472,0.418679C16.7472,0.187449,16.5597,0,16.3285,0L2.09336,0ZM14.3259,0.837358L2.51204,0.837358L2.51204,2.08792L2.51208,2.0934L2.51208,6.28019L2.51204,6.28566L2.51204,7.53623L10.2321,7.53623L14.3259,0.837358ZM1.67468,2.51207L1.67468,5.86151L0.837359,5.86151L0.837359,2.51207L1.67468,2.51207Z" fill-rule="evenodd" fill="#F46E10" fill-opacity="1"/></g></svg>